<svg width="800" height="800" viewBox="0 0 24 24" fill="none" xmlns="http://www.w3.org/2000/svg"><path d="m10 9-3 3 3 3m4-6 3 3-3 3m-6.8 5h9.6c1.12 0 1.68 0 2.108-.218a2 2 0 0 0 .874-.874C20 18.48 20 17.92 20 16.8V7.2c0-1.12 0-1.68-.218-2.108a2 2 0 0 0-.874-.874C18.48 4 17.92 4 16.8 4H7.2c-1.12 0-1.68 0-2.108.218a2 2 0 0 0-.874.874C4 5.52 4 6.08 4 7.2v9.6c0 1.12 0 1.68.218 2.108a2 2 0 0 0 .874.874C5.52 20 6.08 20 7.2 20Z" stroke="#000" stroke-width="2" stroke-linecap="round" stroke-linejoin="round"/></svg>